<svg width="24" height="25" viewBox="0 0 24 25" fill="none" xmlns="http://www.w3.org/2000/svg">
<path d="M9.90421 11.4206C10.1299 11.2572 10.2389 10.9874 10.2389 10.6164C10.2467 10.44 10.2104 10.2661 10.1325 10.1079C10.0625 9.98076 9.9587 9.87439 9.83157 9.79915C9.69976 9.71922 9.55336 9.6663 9.4009 9.64349C9.23486 9.61236 9.06623 9.59679 8.90018 9.59939H7.07633V11.6671H9.05066C9.39052 11.6697 9.6785 11.5867 9.90421 11.4206ZM10.2104 13.2886C9.9561 13.094 9.61624 12.998 9.19335 12.998H7.07114V15.4368H9.15184C9.34642 15.4368 9.52543 15.4186 9.69926 15.3823C9.86372 15.3501 10.0205 15.2867 10.1611 15.1955C10.2934 15.1099 10.3997 14.9931 10.4802 14.8426C10.558 14.6922 10.5969 14.5002 10.5969 14.2693C10.5969 13.8101 10.4672 13.4858 10.2104 13.2886ZM12.2833 0.879639C5.86475 0.879639 0.6604 6.08399 0.6604 12.5025C0.6604 18.921 5.86475 24.1254 12.2833 24.1254C18.7018 24.1254 23.9061 18.921 23.9061 12.5025C23.9061 6.08399 18.7018 0.879639 12.2833 0.879639ZM14.5274 8.32295H18.1181V9.19726H14.5274V8.32295ZM12.2833 15.5328C12.1153 15.8516 11.8755 16.1269 11.5828 16.337C11.2766 16.5498 10.9368 16.7054 10.5762 16.7962C10.1989 16.8973 9.80966 16.9471 9.41906 16.9441H5.12275V8.09464H9.29972C9.72261 8.09464 10.1066 8.13355 10.4568 8.2062C10.8045 8.27884 11.1002 8.40337 11.3493 8.57201C11.5958 8.74064 11.7903 8.96635 11.9278 9.24655C12.0627 9.52415 12.1328 9.8718 12.1328 10.2843C12.1328 10.7305 12.0316 11.0989 11.8293 11.3973C11.6243 11.6957 11.3285 11.9369 10.9264 12.1263C11.4738 12.282 11.876 12.5596 12.1406 12.9487C12.4104 13.3431 12.5427 13.8153 12.5427 14.3705C12.5427 14.8219 12.4571 15.2085 12.2833 15.5328ZM19.5164 14.1629H14.888C14.888 14.6662 15.0619 15.1488 15.3239 15.4082C15.5885 15.6651 15.9673 15.7948 16.4628 15.7948C16.8209 15.7948 17.1244 15.704 17.3838 15.525C17.6407 15.346 17.7964 15.1566 17.8534 14.9594H19.4049C19.1558 15.7299 18.777 16.2799 18.2633 16.612C17.7548 16.9441 17.1322 17.1101 16.4084 17.1101C15.9024 17.1101 15.4484 17.0271 15.0411 16.8689C14.6494 16.7158 14.2965 16.4823 14.0059 16.1814C13.7194 15.8723 13.498 15.5088 13.3548 15.1125C13.1965 14.674 13.1187 14.2122 13.1239 13.7478C13.1239 13.2679 13.2043 12.8216 13.3599 12.4065C13.6583 11.5997 14.2784 10.9537 15.0696 10.619C15.4925 10.4426 15.9466 10.3544 16.4058 10.3595C16.9506 10.3595 17.4228 10.4633 17.8327 10.6761C18.2273 10.8792 18.5699 11.1704 18.8341 11.527C19.0961 11.8824 19.2803 12.2872 19.3971 12.7438C19.5086 13.1926 19.5476 13.6648 19.5164 14.1629ZM16.3513 11.6827C16.0711 11.6827 15.835 11.732 15.6534 11.828C15.4718 11.924 15.3213 12.0433 15.2071 12.1808C15.0984 12.3136 15.0181 12.4672 14.9711 12.6322C14.9295 12.7697 14.901 12.9098 14.8906 13.0525H17.7574C17.7159 12.6037 17.5603 12.2716 17.3527 12.0381C17.1348 11.8072 16.7845 11.6827 16.3513 11.6827Z" fill="white"/>
</svg>
