<svg width="27" height="27" viewBox="0 0 27 27" fill="none" xmlns="http://www.w3.org/2000/svg">
<path d="M10.9042 12.4206C11.1299 12.2572 11.2389 11.9874 11.2389 11.6164C11.2467 11.44 11.2104 11.2661 11.1325 11.1079C11.0625 10.9808 10.9587 10.8744 10.8316 10.7992C10.6998 10.7192 10.5534 10.6663 10.4009 10.6435C10.2349 10.6124 10.0662 10.5968 9.90018 10.5994H8.07633V12.6671H10.0507C10.3905 12.6697 10.6785 12.5867 10.9042 12.4206ZM11.2104 14.2886C10.9561 14.094 10.6162 13.998 10.1934 13.998H8.07114V16.4368H10.1518C10.3464 16.4368 10.5254 16.4186 10.6993 16.3823C10.8637 16.3501 11.0205 16.2867 11.1611 16.1955C11.2934 16.1099 11.3997 15.9931 11.4802 15.8426C11.558 15.6922 11.5969 15.5002 11.5969 15.2693C11.5969 14.8101 11.4672 14.4858 11.2104 14.2886ZM13.2833 1.87964C6.86475 1.87964 1.6604 7.08399 1.6604 13.5025C1.6604 19.921 6.86475 25.1254 13.2833 25.1254C19.7018 25.1254 24.9061 19.921 24.9061 13.5025C24.9061 7.08399 19.7018 1.87964 13.2833 1.87964ZM15.5274 9.32295H19.1181V10.1973H15.5274V9.32295ZM13.2833 16.5328C13.1153 16.8516 12.8755 17.1269 12.5828 17.337C12.2766 17.5498 11.9368 17.7054 11.5762 17.7962C11.1989 17.8973 10.8097 17.9471 10.4191 17.9441H6.12275V9.09464H10.2997C10.7226 9.09464 11.1066 9.13355 11.4568 9.2062C11.8045 9.27884 12.1002 9.40337 12.3493 9.57201C12.5958 9.74064 12.7903 9.96635 12.9278 10.2465C13.0627 10.5241 13.1328 10.8718 13.1328 11.2843C13.1328 11.7305 13.0316 12.0989 12.8293 12.3973C12.6243 12.6957 12.3285 12.9369 11.9264 13.1263C12.4738 13.282 12.876 13.5596 13.1406 13.9487C13.4104 14.3431 13.5427 14.8153 13.5427 15.3705C13.5427 15.8219 13.4571 16.2085 13.2833 16.5328ZM20.5164 15.1629H15.888C15.888 15.6662 16.0619 16.1488 16.3239 16.4082C16.5885 16.6651 16.9673 16.7948 17.4628 16.7948C17.8209 16.7948 18.1244 16.704 18.3838 16.525C18.6407 16.346 18.7964 16.1566 18.8534 15.9594H20.4049C20.1558 16.7299 19.777 17.2799 19.2633 17.612C18.7548 17.9441 18.1322 18.1101 17.4084 18.1101C16.9024 18.1101 16.4484 18.0271 16.0411 17.8689C15.6494 17.7158 15.2965 17.4823 15.0059 17.1814C14.7194 16.8723 14.498 16.5088 14.3548 16.1125C14.1965 15.674 14.1187 15.2122 14.1239 14.7478C14.1239 14.2679 14.2043 13.8216 14.3599 13.4065C14.6583 12.5997 15.2784 11.9537 16.0696 11.619C16.4925 11.4426 16.9466 11.3544 17.4058 11.3595C17.9506 11.3595 18.4228 11.4633 18.8327 11.6761C19.2273 11.8792 19.5699 12.1704 19.8341 12.527C20.0961 12.8824 20.2803 13.2872 20.3971 13.7438C20.5086 14.1926 20.5476 14.6648 20.5164 15.1629ZM17.3513 12.6827C17.0711 12.6827 16.835 12.732 16.6534 12.828C16.4718 12.924 16.3213 13.0433 16.2071 13.1808C16.0984 13.3136 16.0181 13.4672 15.9711 13.6322C15.9295 13.7697 15.901 13.9098 15.8906 14.0525H18.7574C18.7159 13.6037 18.5603 13.2716 18.3527 13.0381C18.1348 12.8072 17.7845 12.6827 17.3513 12.6827Z" fill="white"/>
</svg>
