<svg width="27" height="27" viewBox="0 0 27 27" fill="none" xmlns="http://www.w3.org/2000/svg">
<g clip-path="url(#clip0_21_73)">
<path fill-rule="evenodd" clip-rule="evenodd" d="M0.0673828 13.5767C0.0673828 20.1807 4.86375 25.6722 11.1368 26.7858V17.1919H7.81596V13.5025H11.1368V10.5503C11.1368 7.22949 13.2765 5.38533 16.3029 5.38533C17.2615 5.38533 18.2954 5.53255 19.254 5.67977V9.07476H17.557C15.9332 9.07476 15.5645 9.88614 15.5645 10.92V13.5025H19.1068L18.5168 17.1919H15.5645V26.7858C21.8376 25.6722 26.6339 20.1818 26.6339 13.5767C26.6339 6.22992 20.6565 0.219238 13.3507 0.219238C6.04486 0.219238 0.0673828 6.22992 0.0673828 13.5767Z" fill="white"/>
</g>
<defs>
<clipPath id="clip0_21_73">
<rect width="26.5666" height="26.5666" fill="white" transform="translate(0.0673828 0.219238)"/>
</clipPath>
</defs>
</svg>
