<svg width="28" height="27" viewBox="0 0 28 27" fill="none" xmlns="http://www.w3.org/2000/svg">
<g clip-path="url(#clip0_21_76)">
<path d="M13.8741 0.750244C6.83135 0.750244 1.12219 6.4594 1.12219 13.5022C1.12219 20.545 6.83135 26.2541 13.8741 26.2541C20.9169 26.2541 26.6261 20.545 26.6261 13.5022C26.6261 6.4594 20.9169 0.750244 13.8741 0.750244ZM10.7526 18.7876H8.1703V10.4776H10.7526V18.7876ZM9.44549 9.45743C8.6299 9.45743 8.10256 8.87961 8.10256 8.16497C8.10256 7.43572 8.64584 6.87516 9.4787 6.87516C10.3116 6.87516 10.8216 7.43572 10.8376 8.16497C10.8376 8.87961 10.3116 9.45743 9.44549 9.45743ZM20.1837 18.7876H17.6014V14.1823C17.6014 13.1103 17.2268 12.3824 16.293 12.3824C15.5797 12.3824 15.156 12.8752 14.9687 13.3494C14.8996 13.5181 14.8823 13.7572 14.8823 13.995V18.7863H12.2987V13.1276C12.2987 12.0902 12.2655 11.2228 12.231 10.4763H14.4745L14.5928 11.6306H14.6446C14.9846 11.0886 15.8175 10.289 17.2109 10.289C18.9098 10.289 20.1837 11.4273 20.1837 13.8741V18.7876V18.7876Z" fill="white"/>
</g>
<defs>
<clipPath id="clip0_21_76">
<rect width="26.5666" height="26.5666" fill="white" transform="translate(0.590942 0.219238)"/>
</clipPath>
</defs>
</svg>
